<svg width="24" height="24" viewBox="0 0 24 24" fill="none" xmlns="http://www.w3.org/2000/svg">
<path opacity="0.2" d="M18.9283 7.99995C18.1906 6.72223 17.1139 5.6734 15.8173 4.96941C14.5207 4.26542 13.0547 3.9337 11.5814 4.01092C10.108 4.08813 8.6847 4.57128 7.4688 5.40694C6.2529 6.24261 5.29178 7.39823 4.69169 8.74606" stroke="#B1D1FF" stroke-width="2" stroke-linecap="round"/>
<path d="M20.7682 5.51531L20.0388 8.67485C19.9146 9.21298 19.3776 9.54851 18.8395 9.42428L15.68 8.69487" stroke="#B5B2FF" stroke-width="1.5" stroke-linecap="round"/>
<path opacity="0.2" d="M5.07178 15.9999C5.80947 17.2776 6.88612 18.3264 8.18271 19.0304C9.4793 19.7344 10.9453 20.0661 12.4187 19.9889C13.892 19.9117 15.3153 19.4285 16.5312 18.5929C17.7471 17.7572 18.7083 16.6016 19.3083 15.2537" stroke="#B1D1FF" stroke-width="2" stroke-linecap="round"/>
<path d="M3.2318 18.4845L3.96122 15.3249C4.08545 14.7868 4.6224 14.4513 5.16053 14.5755L8.32007 15.3049" stroke="#B5B2FF" stroke-width="1.5" stroke-linecap="round"/>
</svg>
