<svg width="141" height="24" viewBox="0 0 141 24" fill="none" xmlns="http://www.w3.org/2000/svg">
<path opacity="0.2" d="M38.9283 7.99995C38.1906 6.72223 37.1139 5.6734 35.8173 4.96941C34.5207 4.26542 33.0547 3.9337 31.5814 4.01092C30.108 4.08813 28.6847 4.57128 27.4688 5.40694C26.2529 6.24261 25.2918 7.39823 24.6917 8.74606" stroke="#B1D1FF" stroke-width="2" stroke-linecap="round"/>
<path d="M40.7682 5.51531L40.0388 8.67485C39.9146 9.21298 39.3776 9.54851 38.8395 9.42428L35.68 8.69487" stroke="#B5B2FF" stroke-width="1.5" stroke-linecap="round"/>
<path opacity="0.2" d="M25.0718 15.9999C25.8095 17.2776 26.8861 18.3264 28.1827 19.0304C29.4793 19.7344 30.9453 20.0661 32.4187 19.9889C33.892 19.9117 35.3153 19.4285 36.5312 18.5929C37.7471 17.7572 38.7083 16.6016 39.3083 15.2537" stroke="#B1D1FF" stroke-width="2" stroke-linecap="round"/>
<path d="M23.2318 18.4845L23.9612 15.3249C24.0855 14.7868 24.6224 14.4513 25.1605 14.5755L28.3201 15.3049" stroke="#B5B2FF" stroke-width="1.5" stroke-linecap="round"/>
<path d="M48.6094 19V5.25H54.1094V7.92969H51.375V10.1172H53.9688V12.7656H51.375V19H48.6094ZM58.1797 19.125C57.0339 19.125 56.1901 18.8047 55.6484 18.1641C55.1068 17.5182 54.8359 16.5703 54.8359 15.3203V5.25H57.5078V15.2109C57.5078 15.4401 57.5208 15.6615 57.5469 15.875C57.5729 16.0833 57.6328 16.2552 57.7266 16.3906C57.8203 16.526 57.9714 16.5938 58.1797 16.5938C58.3932 16.5938 58.5469 16.5286 58.6406 16.3984C58.7344 16.263 58.7917 16.0885 58.8125 15.875C58.8385 15.6615 58.8516 15.4401 58.8516 15.2109V5.25H61.5234V15.3203C61.5234 16.5703 61.2526 17.5182 60.7109 18.1641C60.1693 18.8047 59.3255 19.125 58.1797 19.125ZM63.7578 19V7.89062H62.125V5.25H68.1406V7.89062H66.5078V19H63.7578ZM72.0859 19.125C70.9401 19.125 70.0964 18.8047 69.5547 18.1641C69.013 17.5182 68.7422 16.5703 68.7422 15.3203V5.25H71.4141V15.2109C71.4141 15.4401 71.4271 15.6615 71.4531 15.875C71.4792 16.0833 71.5391 16.2552 71.6328 16.3906C71.7266 16.526 71.8776 16.5938 72.0859 16.5938C72.2995 16.5938 72.4531 16.5286 72.5469 16.3984C72.6406 16.263 72.6979 16.0885 72.7188 15.875C72.7448 15.6615 72.7578 15.4401 72.7578 15.2109V5.25H75.4297V15.3203C75.4297 16.5703 75.1589 17.5182 74.6172 18.1641C74.0755 18.8047 73.2318 19.125 72.0859 19.125ZM76.4844 19V5.25H80.7031C81.4062 5.25 81.9375 5.41146 82.2969 5.73438C82.6562 6.05208 82.8958 6.5 83.0156 7.07812C83.1406 7.65104 83.2031 8.32552 83.2031 9.10156C83.2031 9.85156 83.1068 10.4505 82.9141 10.8984C82.7266 11.3464 82.3698 11.6562 81.8438 11.8281C82.276 11.9167 82.5781 12.1328 82.75 12.4766C82.9271 12.8151 83.0156 13.2552 83.0156 13.7969V19H80.3047V13.6172C80.3047 13.2161 80.2214 12.9688 80.0547 12.875C79.8932 12.776 79.6302 12.7266 79.2656 12.7266V19H76.4844ZM79.2812 10.3438H79.9453C80.3255 10.3438 80.5156 9.92969 80.5156 9.10156C80.5156 8.5651 80.474 8.21354 80.3906 8.04688C80.3073 7.88021 80.151 7.79688 79.9219 7.79688H79.2812V10.3438ZM84.1094 19V5.25H89.6094V7.90625H86.9062V10.5859H89.5V13.1719H86.9062V16.3203H89.7891V19H84.1094ZM93.9688 19.125C92.7135 19.125 91.8073 18.8125 91.25 18.1875C90.6979 17.5625 90.4219 16.5677 90.4219 15.2031V13.8594H93.1406V15.5781C93.1406 15.8958 93.1875 16.1458 93.2812 16.3281C93.3802 16.5052 93.5495 16.5938 93.7891 16.5938C94.0391 16.5938 94.2109 16.5208 94.3047 16.375C94.4036 16.2292 94.4531 15.9896 94.4531 15.6562C94.4531 15.2344 94.4115 14.8828 94.3281 14.6016C94.2448 14.3151 94.099 14.0443 93.8906 13.7891C93.6875 13.5286 93.4036 13.2266 93.0391 12.8828L91.8047 11.7109C90.8828 10.8411 90.4219 9.84635 90.4219 8.72656C90.4219 7.55469 90.6927 6.66146 91.2344 6.04688C91.7812 5.43229 92.5703 5.125 93.6016 5.125C94.862 5.125 95.7552 5.46094 96.2812 6.13281C96.8125 6.80469 97.0781 7.82552 97.0781 9.19531H94.2812V8.25C94.2812 8.0625 94.2266 7.91667 94.1172 7.8125C94.013 7.70833 93.8698 7.65625 93.6875 7.65625C93.4688 7.65625 93.3073 7.71875 93.2031 7.84375C93.1042 7.96354 93.0547 8.11979 93.0547 8.3125C93.0547 8.50521 93.1068 8.71354 93.2109 8.9375C93.3151 9.16146 93.5208 9.41927 93.8281 9.71094L95.4141 11.2344C95.7318 11.5365 96.0234 11.8568 96.2891 12.1953C96.5547 12.5286 96.7682 12.9193 96.9297 13.3672C97.0911 13.8099 97.1719 14.3516 97.1719 14.9922C97.1719 16.2839 96.9323 17.2969 96.4531 18.0312C95.9792 18.7604 95.151 19.125 93.9688 19.125ZM99.7578 19V14.4766L97.5625 5.25H100.289L101.055 9.90625L101.82 5.25H104.539L102.352 14.4766V19H99.7578ZM105.234 19V5.25H108.062L109.328 11.8359V5.25H111.984V19H109.297L107.922 12.125V19H105.234ZM116.406 19.125C115.411 19.125 114.609 18.8151 114 18.1953C113.396 17.5755 113.094 16.7083 113.094 15.5938V9.25C113.094 7.91667 113.357 6.89583 113.883 6.1875C114.414 5.47917 115.276 5.125 116.469 5.125C117.12 5.125 117.698 5.24479 118.203 5.48438C118.714 5.72396 119.115 6.08333 119.406 6.5625C119.698 7.03646 119.844 7.63542 119.844 8.35938V10.7344H117.109V8.70312C117.109 8.29167 117.057 8.01562 116.953 7.875C116.849 7.72917 116.688 7.65625 116.469 7.65625C116.214 7.65625 116.042 7.75 115.953 7.9375C115.865 8.11979 115.82 8.36458 115.82 8.67188V15.5547C115.82 15.9349 115.875 16.2031 115.984 16.3594C116.099 16.5156 116.26 16.5938 116.469 16.5938C116.703 16.5938 116.867 16.4974 116.961 16.3047C117.06 16.112 117.109 15.862 117.109 15.5547V13.0781H119.875V15.6797C119.875 16.888 119.57 17.7656 118.961 18.3125C118.352 18.8542 117.5 19.125 116.406 19.125Z" fill="white"/>
</svg>
