<svg width="106" height="29" viewBox="0 0 106 29" fill="none" xmlns="http://www.w3.org/2000/svg">
<rect x="0.5" y="0.5" width="105" height="28" rx="14" stroke="url(#paint0_linear_16_18360)"/>
<path d="M21.4091 20V8.36364H28.3864V9.61364H22.8182V13.5455H27.8636V14.7955H22.8182V20H21.4091ZM33.6364 20.1818C32.7955 20.1818 32.0701 19.9962 31.4602 19.625C30.8542 19.25 30.3864 18.7273 30.0568 18.0568C29.7311 17.3826 29.5682 16.5985 29.5682 15.7045C29.5682 14.8106 29.7311 14.0227 30.0568 13.3409C30.3864 12.6553 30.8447 12.1212 31.4318 11.7386C32.0227 11.3523 32.7121 11.1591 33.5 11.1591C33.9545 11.1591 34.4034 11.2348 34.8466 11.3864C35.2898 11.5379 35.6932 11.7841 36.0568 12.125C36.4205 12.4621 36.7102 12.9091 36.9261 13.4659C37.142 14.0227 37.25 14.7083 37.25 15.5227V16.0909H30.5227V14.9318H35.8864C35.8864 14.4394 35.7879 14 35.5909 13.6136C35.3977 13.2273 35.1212 12.9223 34.7614 12.6989C34.4053 12.4754 33.9848 12.3636 33.5 12.3636C32.9659 12.3636 32.5038 12.4962 32.1136 12.7614C31.7273 13.0227 31.4299 13.3636 31.2216 13.7841C31.0133 14.2045 30.9091 14.6553 30.9091 15.1364V15.9091C30.9091 16.5682 31.0227 17.1269 31.25 17.5852C31.4811 18.0398 31.8011 18.3864 32.2102 18.625C32.6193 18.8598 33.0947 18.9773 33.6364 18.9773C33.9886 18.9773 34.3068 18.928 34.5909 18.8295C34.8788 18.7273 35.1269 18.5758 35.3352 18.375C35.5436 18.1705 35.7045 17.9167 35.8182 17.6136L37.1136 17.9773C36.9773 18.4167 36.7481 18.803 36.4261 19.1364C36.1042 19.4659 35.7064 19.7235 35.233 19.9091C34.7595 20.0909 34.2273 20.1818 33.6364 20.1818ZM41.858 20.2045C41.3049 20.2045 40.803 20.1004 40.3523 19.892C39.9015 19.6799 39.5436 19.375 39.2784 18.9773C39.0133 18.5758 38.8807 18.0909 38.8807 17.5227C38.8807 17.0227 38.9792 16.6174 39.1761 16.3068C39.3731 15.9924 39.6364 15.7462 39.9659 15.5682C40.2955 15.3902 40.6591 15.2576 41.0568 15.1705C41.4583 15.0795 41.8617 15.0076 42.267 14.9545C42.7973 14.8864 43.2273 14.8352 43.5568 14.8011C43.8902 14.7633 44.1326 14.7008 44.2841 14.6136C44.4394 14.5265 44.517 14.375 44.517 14.1591V14.1136C44.517 13.553 44.3636 13.1174 44.0568 12.8068C43.7538 12.4962 43.2936 12.3409 42.6761 12.3409C42.036 12.3409 41.5341 12.4811 41.1705 12.7614C40.8068 13.0417 40.5511 13.3409 40.4034 13.6591L39.1307 13.2045C39.358 12.6742 39.661 12.2614 40.0398 11.9659C40.4223 11.6667 40.839 11.4583 41.2898 11.3409C41.7443 11.2197 42.1913 11.1591 42.6307 11.1591C42.911 11.1591 43.233 11.1932 43.5966 11.2614C43.964 11.3258 44.3182 11.4602 44.6591 11.6648C45.0038 11.8693 45.2898 12.178 45.517 12.5909C45.7443 13.0038 45.858 13.5568 45.858 14.25V20H44.517V18.8182H44.4489C44.358 19.0076 44.2064 19.2102 43.9943 19.4261C43.7822 19.642 43.5 19.8258 43.1477 19.9773C42.7955 20.1288 42.3655 20.2045 41.858 20.2045ZM42.0625 19C42.5928 19 43.0398 18.8958 43.4034 18.6875C43.7708 18.4792 44.0473 18.2102 44.233 17.8807C44.4223 17.5511 44.517 17.2045 44.517 16.8409V15.6136C44.4602 15.6818 44.3352 15.7443 44.142 15.8011C43.9527 15.8542 43.733 15.9015 43.483 15.9432C43.2367 15.9811 42.9962 16.0152 42.7614 16.0455C42.5303 16.072 42.3428 16.0947 42.1989 16.1136C41.8504 16.1591 41.5246 16.233 41.2216 16.3352C40.9223 16.4337 40.6799 16.5833 40.4943 16.7841C40.3125 16.9811 40.2216 17.25 40.2216 17.5909C40.2216 18.0568 40.3939 18.4091 40.7386 18.6477C41.0871 18.8826 41.5284 19 42.0625 19ZM52.1009 11.2727V12.4091H47.5781V11.2727H52.1009ZM48.8963 9.18182H50.2372V17.5C50.2372 17.8788 50.2921 18.1629 50.402 18.3523C50.5156 18.5379 50.6596 18.6629 50.8338 18.7273C51.0118 18.7879 51.1993 18.8182 51.3963 18.8182C51.544 18.8182 51.6652 18.8106 51.7599 18.7955C51.8546 18.7765 51.9304 18.7614 51.9872 18.75L52.2599 19.9545C52.169 19.9886 52.0421 20.0227 51.8793 20.0568C51.7164 20.0947 51.5099 20.1136 51.2599 20.1136C50.8812 20.1136 50.5099 20.0322 50.1463 19.8693C49.7865 19.7064 49.4872 19.4583 49.2486 19.125C49.0137 18.7917 48.8963 18.3712 48.8963 17.8636V9.18182ZM59.6179 16.4318V11.2727H60.9588V20H59.6179V18.5227H59.527C59.3224 18.9659 59.0043 19.3428 58.5724 19.6534C58.1406 19.9602 57.5952 20.1136 56.9361 20.1136C56.3906 20.1136 55.9058 19.9943 55.4815 19.7557C55.0573 19.5133 54.724 19.1496 54.4815 18.6648C54.2391 18.1761 54.1179 17.5606 54.1179 16.8182V11.2727H55.4588V16.7273C55.4588 17.3636 55.6368 17.8712 55.9929 18.25C56.3527 18.6288 56.8111 18.8182 57.3679 18.8182C57.7012 18.8182 58.0402 18.733 58.3849 18.5625C58.7334 18.392 59.0251 18.1307 59.2599 17.7784C59.4986 17.4261 59.6179 16.9773 59.6179 16.4318ZM63.4148 20V11.2727H64.7102V12.5909H64.8011C64.9602 12.1591 65.2481 11.8087 65.6648 11.5398C66.0814 11.2708 66.5511 11.1364 67.0739 11.1364C67.1723 11.1364 67.2955 11.1383 67.4432 11.142C67.5909 11.1458 67.7027 11.1515 67.7784 11.1591V12.5227C67.733 12.5114 67.6288 12.4943 67.4659 12.4716C67.3068 12.4451 67.1383 12.4318 66.9602 12.4318C66.536 12.4318 66.1572 12.5208 65.8239 12.6989C65.4943 12.8731 65.233 13.1155 65.0398 13.4261C64.8504 13.733 64.7557 14.0833 64.7557 14.4773V20H63.4148ZM72.7614 20.1818C71.9205 20.1818 71.1951 19.9962 70.5852 19.625C69.9792 19.25 69.5114 18.7273 69.1818 18.0568C68.8561 17.3826 68.6932 16.5985 68.6932 15.7045C68.6932 14.8106 68.8561 14.0227 69.1818 13.3409C69.5114 12.6553 69.9697 12.1212 70.5568 11.7386C71.1477 11.3523 71.8371 11.1591 72.625 11.1591C73.0795 11.1591 73.5284 11.2348 73.9716 11.3864C74.4148 11.5379 74.8182 11.7841 75.1818 12.125C75.5455 12.4621 75.8352 12.9091 76.0511 13.4659C76.267 14.0227 76.375 14.7083 76.375 15.5227V16.0909H69.6477V14.9318H75.0114C75.0114 14.4394 74.9129 14 74.7159 13.6136C74.5227 13.2273 74.2462 12.9223 73.8864 12.6989C73.5303 12.4754 73.1098 12.3636 72.625 12.3636C72.0909 12.3636 71.6288 12.4962 71.2386 12.7614C70.8523 13.0227 70.5549 13.3636 70.3466 13.7841C70.1383 14.2045 70.0341 14.6553 70.0341 15.1364V15.9091C70.0341 16.5682 70.1477 17.1269 70.375 17.5852C70.6061 18.0398 70.9261 18.3864 71.3352 18.625C71.7443 18.8598 72.2197 18.9773 72.7614 18.9773C73.1136 18.9773 73.4318 18.928 73.7159 18.8295C74.0038 18.7273 74.2519 18.5758 74.4602 18.375C74.6686 18.1705 74.8295 17.9167 74.9432 17.6136L76.2386 17.9773C76.1023 18.4167 75.8731 18.803 75.5511 19.1364C75.2292 19.4659 74.8314 19.7235 74.358 19.9091C73.8845 20.0909 73.3523 20.1818 72.7614 20.1818ZM84.5966 13.2273L83.392 13.5682C83.3163 13.3674 83.2045 13.1723 83.0568 12.983C82.9129 12.7898 82.7159 12.6307 82.4659 12.5057C82.2159 12.3807 81.8958 12.3182 81.5057 12.3182C80.9716 12.3182 80.5265 12.4413 80.1705 12.6875C79.8182 12.9299 79.642 13.2386 79.642 13.6136C79.642 13.947 79.7633 14.2102 80.0057 14.4034C80.2481 14.5966 80.6269 14.7576 81.142 14.8864L82.4375 15.2045C83.2178 15.3939 83.7992 15.6837 84.1818 16.0739C84.5644 16.4602 84.7557 16.9583 84.7557 17.5682C84.7557 18.0682 84.6117 18.5152 84.3239 18.9091C84.0398 19.303 83.642 19.6136 83.1307 19.8409C82.6193 20.0682 82.0246 20.1818 81.3466 20.1818C80.4564 20.1818 79.7197 19.9886 79.1364 19.6023C78.553 19.2159 78.1837 18.6515 78.0284 17.9091L79.3011 17.5909C79.4223 18.0606 79.6515 18.4129 79.9886 18.6477C80.3295 18.8826 80.7746 19 81.3239 19C81.9489 19 82.4451 18.8674 82.8125 18.6023C83.1837 18.3333 83.3693 18.0114 83.3693 17.6364C83.3693 17.3333 83.2633 17.0795 83.0511 16.875C82.839 16.6667 82.5133 16.5114 82.0739 16.4091L80.6193 16.0682C79.8201 15.8788 79.233 15.5852 78.858 15.1875C78.4867 14.786 78.3011 14.2841 78.3011 13.6818C78.3011 13.1894 78.4394 12.7538 78.7159 12.375C78.9962 11.9962 79.3769 11.6989 79.858 11.483C80.3428 11.267 80.892 11.1591 81.5057 11.1591C82.3693 11.1591 83.0473 11.3485 83.5398 11.7273C84.036 12.1061 84.3883 12.6061 84.5966 13.2273Z" fill="#C4C1FF"/>
<defs>
<linearGradient id="paint0_linear_16_18360" x1="-1.01667e-06" y1="14.1282" x2="106" y2="14.1282" gradientUnits="userSpaceOnUse">
<stop stop-color="#8D33FF"/>
<stop offset="1" stop-color="#0469FF"/>
</linearGradient>
</defs>
</svg>
