<svg width="191" height="29" viewBox="0 0 191 29" fill="none" xmlns="http://www.w3.org/2000/svg">
<rect x="0.5" y="0.5" width="190" height="28" rx="14" stroke="url(#paint0_linear_16_18316)"/>
<path d="M20.4091 8.36364H22.0227L25.25 13.7955H25.3864L28.6136 8.36364H30.2273L26.0227 15.2045V20H24.6136V15.2045L20.4091 8.36364ZM34.179 20.1818C33.3911 20.1818 32.6998 19.9943 32.1051 19.6193C31.5142 19.2443 31.0521 18.7197 30.7188 18.0455C30.3892 17.3712 30.2244 16.5833 30.2244 15.6818C30.2244 14.7727 30.3892 13.9792 30.7188 13.3011C31.0521 12.6231 31.5142 12.0966 32.1051 11.7216C32.6998 11.3466 33.3911 11.1591 34.179 11.1591C34.9669 11.1591 35.6563 11.3466 36.2472 11.7216C36.8419 12.0966 37.304 12.6231 37.6335 13.3011C37.9669 13.9792 38.1335 14.7727 38.1335 15.6818C38.1335 16.5833 37.9669 17.3712 37.6335 18.0455C37.304 18.7197 36.8419 19.2443 36.2472 19.6193C35.6563 19.9943 34.9669 20.1818 34.179 20.1818ZM34.179 18.9773C34.7775 18.9773 35.2699 18.8239 35.6562 18.517C36.0426 18.2102 36.3286 17.8068 36.5142 17.3068C36.6998 16.8068 36.7926 16.2652 36.7926 15.6818C36.7926 15.0985 36.6998 14.5549 36.5142 14.0511C36.3286 13.5473 36.0426 13.1402 35.6562 12.8295C35.2699 12.5189 34.7775 12.3636 34.179 12.3636C33.5805 12.3636 33.0881 12.5189 32.7017 12.8295C32.3153 13.1402 32.0294 13.5473 31.8438 14.0511C31.6581 14.5549 31.5653 15.0985 31.5653 15.6818C31.5653 16.2652 31.6581 16.8068 31.8438 17.3068C32.0294 17.8068 32.3153 18.2102 32.7017 18.517C33.0881 18.8239 33.5805 18.9773 34.179 18.9773ZM45.6804 16.4318V11.2727H47.0213V20H45.6804V18.5227H45.5895C45.3849 18.9659 45.0668 19.3428 44.6349 19.6534C44.2031 19.9602 43.6577 20.1136 42.9986 20.1136C42.4531 20.1136 41.9683 19.9943 41.544 19.7557C41.1198 19.5133 40.7865 19.1496 40.544 18.6648C40.3016 18.1761 40.1804 17.5606 40.1804 16.8182V11.2727H41.5213V16.7273C41.5213 17.3636 41.6993 17.8712 42.0554 18.25C42.4152 18.6288 42.8736 18.8182 43.4304 18.8182C43.7637 18.8182 44.1027 18.733 44.4474 18.5625C44.7959 18.392 45.0876 18.1307 45.3224 17.7784C45.5611 17.4261 45.6804 16.9773 45.6804 16.4318ZM49.4773 20V11.2727H50.7727V12.5909H50.8636C51.0227 12.1591 51.3106 11.8087 51.7273 11.5398C52.1439 11.2708 52.6136 11.1364 53.1364 11.1364C53.2348 11.1364 53.358 11.1383 53.5057 11.142C53.6534 11.1458 53.7652 11.1515 53.8409 11.1591V12.5227C53.7955 12.5114 53.6913 12.4943 53.5284 12.4716C53.3693 12.4451 53.2008 12.4318 53.0227 12.4318C52.5985 12.4318 52.2197 12.5208 51.8864 12.6989C51.5568 12.8731 51.2955 13.1155 51.1023 13.4261C50.9129 13.733 50.8182 14.0833 50.8182 14.4773V20H49.4773ZM63.7259 11.2727V12.4091H59.2031V11.2727H63.7259ZM60.5213 9.18182H61.8622V17.5C61.8622 17.8788 61.9171 18.1629 62.027 18.3523C62.1406 18.5379 62.2846 18.6629 62.4588 18.7273C62.6368 18.7879 62.8243 18.8182 63.0213 18.8182C63.169 18.8182 63.2902 18.8106 63.3849 18.7955C63.4796 18.7765 63.5554 18.7614 63.6122 18.75L63.8849 19.9545C63.794 19.9886 63.6671 20.0227 63.5043 20.0568C63.3414 20.0947 63.1349 20.1136 62.8849 20.1136C62.5062 20.1136 62.1349 20.0322 61.7713 19.8693C61.4115 19.7064 61.1122 19.4583 60.8736 19.125C60.6387 18.7917 60.5213 18.3712 60.5213 17.8636V9.18182ZM65.7429 20V11.2727H67.0384V12.5909H67.1293C67.2884 12.1591 67.5762 11.8087 67.9929 11.5398C68.4096 11.2708 68.8793 11.1364 69.402 11.1364C69.5005 11.1364 69.6236 11.1383 69.7713 11.142C69.919 11.1458 70.0308 11.1515 70.1065 11.1591V12.5227C70.0611 12.5114 69.9569 12.4943 69.794 12.4716C69.6349 12.4451 69.4664 12.4318 69.2884 12.4318C68.8641 12.4318 68.4853 12.5208 68.152 12.6989C67.8224 12.8731 67.5611 13.1155 67.3679 13.4261C67.1785 13.733 67.0838 14.0833 67.0838 14.4773V20H65.7429ZM74.2642 20.2045C73.7112 20.2045 73.2093 20.1004 72.7585 19.892C72.3078 19.6799 71.9498 19.375 71.6847 18.9773C71.4195 18.5758 71.2869 18.0909 71.2869 17.5227C71.2869 17.0227 71.3854 16.6174 71.5824 16.3068C71.7794 15.9924 72.0426 15.7462 72.3722 15.5682C72.7017 15.3902 73.0653 15.2576 73.4631 15.1705C73.8646 15.0795 74.268 15.0076 74.6733 14.9545C75.2036 14.8864 75.6335 14.8352 75.9631 14.8011C76.2964 14.7633 76.5388 14.7008 76.6903 14.6136C76.8456 14.5265 76.9233 14.375 76.9233 14.1591V14.1136C76.9233 13.553 76.7699 13.1174 76.4631 12.8068C76.16 12.4962 75.6998 12.3409 75.0824 12.3409C74.4422 12.3409 73.9403 12.4811 73.5767 12.7614C73.2131 13.0417 72.9574 13.3409 72.8097 13.6591L71.5369 13.2045C71.7642 12.6742 72.0672 12.2614 72.446 11.9659C72.8286 11.6667 73.2453 11.4583 73.696 11.3409C74.1506 11.2197 74.5975 11.1591 75.0369 11.1591C75.3172 11.1591 75.6392 11.1932 76.0028 11.2614C76.3703 11.3258 76.7244 11.4602 77.0653 11.6648C77.41 11.8693 77.696 12.178 77.9233 12.5909C78.1506 13.0038 78.2642 13.5568 78.2642 14.25V20H76.9233V18.8182H76.8551C76.7642 19.0076 76.6127 19.2102 76.4006 19.4261C76.1884 19.642 75.9063 19.8258 75.554 19.9773C75.2017 20.1288 74.7718 20.2045 74.2642 20.2045ZM74.4688 19C74.9991 19 75.446 18.8958 75.8097 18.6875C76.1771 18.4792 76.4536 18.2102 76.6392 17.8807C76.8286 17.5511 76.9233 17.2045 76.9233 16.8409V15.6136C76.8665 15.6818 76.7415 15.7443 76.5483 15.8011C76.3589 15.8542 76.1392 15.9015 75.8892 15.9432C75.643 15.9811 75.4025 16.0152 75.1676 16.0455C74.9366 16.072 74.7491 16.0947 74.6051 16.1136C74.2566 16.1591 73.9309 16.233 73.6278 16.3352C73.3286 16.4337 73.0862 16.5833 72.9006 16.7841C72.7188 16.9811 72.6278 17.25 72.6278 17.5909C72.6278 18.0568 72.8002 18.4091 73.1449 18.6477C73.4934 18.8826 73.9347 19 74.4688 19ZM84.0071 20.1818C83.2798 20.1818 82.6378 19.9981 82.081 19.6307C81.5241 19.2595 81.0885 18.7367 80.7741 18.0625C80.4598 17.3845 80.3026 16.5833 80.3026 15.6591C80.3026 14.7424 80.4598 13.947 80.7741 13.2727C81.0885 12.5985 81.526 12.0777 82.0866 11.7102C82.6473 11.3428 83.295 11.1591 84.0298 11.1591C84.598 11.1591 85.0469 11.2538 85.3764 11.4432C85.7098 11.6288 85.9635 11.8409 86.1378 12.0795C86.3158 12.3144 86.4541 12.5076 86.5526 12.6591H86.6662V8.36364H88.0071V20H86.7116V18.6591H86.5526C86.4541 18.8182 86.3139 19.0189 86.1321 19.2614C85.9503 19.5 85.6908 19.714 85.3537 19.9034C85.0166 20.089 84.5677 20.1818 84.0071 20.1818ZM84.1889 18.9773C84.7268 18.9773 85.1813 18.8371 85.5526 18.5568C85.9238 18.2727 86.206 17.8807 86.3991 17.3807C86.5923 16.8769 86.6889 16.2955 86.6889 15.6364C86.6889 14.9848 86.5942 14.4148 86.4048 13.9261C86.2154 13.4337 85.9351 13.0511 85.5639 12.7784C85.1927 12.5019 84.7344 12.3636 84.1889 12.3636C83.6207 12.3636 83.1473 12.5095 82.7685 12.8011C82.3935 13.089 82.1113 13.4811 81.9219 13.9773C81.7363 14.4697 81.6435 15.0227 81.6435 15.6364C81.6435 16.2576 81.7382 16.822 81.9276 17.3295C82.1207 17.8333 82.4048 18.2348 82.7798 18.5341C83.1586 18.8295 83.6283 18.9773 84.1889 18.9773ZM94.3082 20.1818C93.4673 20.1818 92.742 19.9962 92.1321 19.625C91.526 19.25 91.0582 18.7273 90.7287 18.0568C90.4029 17.3826 90.2401 16.5985 90.2401 15.7045C90.2401 14.8106 90.4029 14.0227 90.7287 13.3409C91.0582 12.6553 91.5166 12.1212 92.1037 11.7386C92.6946 11.3523 93.384 11.1591 94.1719 11.1591C94.6264 11.1591 95.0753 11.2348 95.5185 11.3864C95.9616 11.5379 96.3651 11.7841 96.7287 12.125C97.0923 12.4621 97.3821 12.9091 97.598 13.4659C97.8139 14.0227 97.9219 14.7083 97.9219 15.5227V16.0909H91.1946V14.9318H96.5582C96.5582 14.4394 96.4598 14 96.2628 13.6136C96.0696 13.2273 95.7931 12.9223 95.4332 12.6989C95.0772 12.4754 94.6567 12.3636 94.1719 12.3636C93.6378 12.3636 93.1757 12.4962 92.7855 12.7614C92.3991 13.0227 92.1018 13.3636 91.8935 13.7841C91.6851 14.2045 91.581 14.6553 91.581 15.1364V15.9091C91.581 16.5682 91.6946 17.1269 91.9219 17.5852C92.1529 18.0398 92.473 18.3864 92.8821 18.625C93.2912 18.8598 93.7666 18.9773 94.3082 18.9773C94.6605 18.9773 94.9787 18.928 95.2628 18.8295C95.5507 18.7273 95.7988 18.5758 96.0071 18.375C96.2154 18.1705 96.3764 17.9167 96.4901 17.6136L97.7855 17.9773C97.6491 18.4167 97.42 18.803 97.098 19.1364C96.776 19.4659 96.3783 19.7235 95.9048 19.9091C95.4313 20.0909 94.8991 20.1818 94.3082 20.1818ZM106.143 13.2273L104.939 13.5682C104.863 13.3674 104.751 13.1723 104.604 12.983C104.46 12.7898 104.263 12.6307 104.013 12.5057C103.763 12.3807 103.443 12.3182 103.053 12.3182C102.518 12.3182 102.073 12.4413 101.717 12.6875C101.365 12.9299 101.189 13.2386 101.189 13.6136C101.189 13.947 101.31 14.2102 101.553 14.4034C101.795 14.5966 102.174 14.7576 102.689 14.8864L103.984 15.2045C104.765 15.3939 105.346 15.6837 105.729 16.0739C106.111 16.4602 106.303 16.9583 106.303 17.5682C106.303 18.0682 106.159 18.5152 105.871 18.9091C105.587 19.303 105.189 19.6136 104.678 19.8409C104.166 20.0682 103.571 20.1818 102.893 20.1818C102.003 20.1818 101.267 19.9886 100.683 19.6023C100.1 19.2159 99.7306 18.6515 99.5753 17.9091L100.848 17.5909C100.969 18.0606 101.198 18.4129 101.536 18.6477C101.876 18.8826 102.321 19 102.871 19C103.496 19 103.992 18.8674 104.359 18.6023C104.731 18.3333 104.916 18.0114 104.916 17.6364C104.916 17.3333 104.81 17.0795 104.598 16.875C104.386 16.6667 104.06 16.5114 103.621 16.4091L102.166 16.0682C101.367 15.8788 100.78 15.5852 100.405 15.1875C100.034 14.786 99.848 14.2841 99.848 13.6818C99.848 13.1894 99.9863 12.7538 100.263 12.375C100.543 11.9962 100.924 11.6989 101.405 11.483C101.89 11.267 102.439 11.1591 103.053 11.1591C103.916 11.1591 104.594 11.3485 105.087 11.7273C105.583 12.1061 105.935 12.6061 106.143 13.2273ZM110.321 18.4091L110.23 19.0227C110.166 19.4545 110.067 19.9167 109.935 20.4091C109.806 20.9015 109.671 21.3655 109.531 21.8011C109.391 22.2367 109.276 22.5833 109.185 22.8409H108.162C108.211 22.5985 108.276 22.2784 108.355 21.8807C108.435 21.483 108.514 21.0379 108.594 20.5455C108.677 20.0568 108.745 19.5568 108.798 19.0455L108.866 18.4091H110.321ZM123.487 13.2273L122.283 13.5682C122.207 13.3674 122.095 13.1723 121.947 12.983C121.804 12.7898 121.607 12.6307 121.357 12.5057C121.107 12.3807 120.786 12.3182 120.396 12.3182C119.862 12.3182 119.417 12.4413 119.061 12.6875C118.709 12.9299 118.533 13.2386 118.533 13.6136C118.533 13.947 118.654 14.2102 118.896 14.4034C119.139 14.5966 119.518 14.7576 120.033 14.8864L121.328 15.2045C122.108 15.3939 122.69 15.6837 123.072 16.0739C123.455 16.4602 123.646 16.9583 123.646 17.5682C123.646 18.0682 123.502 18.5152 123.214 18.9091C122.93 19.303 122.533 19.6136 122.021 19.8409C121.51 20.0682 120.915 20.1818 120.237 20.1818C119.347 20.1818 118.61 19.9886 118.027 19.6023C117.444 19.2159 117.074 18.6515 116.919 17.9091L118.192 17.5909C118.313 18.0606 118.542 18.4129 118.879 18.6477C119.22 18.8826 119.665 19 120.214 19C120.839 19 121.336 18.8674 121.703 18.6023C122.074 18.3333 122.26 18.0114 122.26 17.6364C122.26 17.3333 122.154 17.0795 121.942 16.875C121.73 16.6667 121.404 16.5114 120.964 16.4091L119.51 16.0682C118.711 15.8788 118.124 15.5852 117.749 15.1875C117.377 14.786 117.192 14.2841 117.192 13.6818C117.192 13.1894 117.33 12.7538 117.607 12.375C117.887 11.9962 118.268 11.6989 118.749 11.483C119.233 11.267 119.783 11.1591 120.396 11.1591C121.26 11.1591 121.938 11.3485 122.43 11.7273C122.927 12.1061 123.279 12.6061 123.487 13.2273ZM126.528 23.2727C126.301 23.2727 126.098 23.2538 125.92 23.2159C125.742 23.1818 125.619 23.1477 125.551 23.1136L125.892 21.9318C126.218 22.0152 126.506 22.0455 126.756 22.0227C127.006 22 127.227 21.8883 127.42 21.6875C127.617 21.4905 127.797 21.1705 127.96 20.7273L128.21 20.0455L124.983 11.2727H126.438L128.847 18.2273H128.938L131.347 11.2727H132.801L129.097 21.2727C128.93 21.7235 128.723 22.0966 128.477 22.392C128.231 22.6913 127.945 22.9129 127.619 23.0568C127.297 23.2008 126.934 23.2727 126.528 23.2727ZM135.912 14.75V20H134.571V11.2727H135.866V12.6364H135.98C136.185 12.1932 136.495 11.8371 136.912 11.5682C137.329 11.2955 137.866 11.1591 138.526 11.1591C139.116 11.1591 139.634 11.2803 140.077 11.5227C140.52 11.7614 140.865 12.125 141.111 12.6136C141.357 13.0985 141.48 13.7121 141.48 14.4545V20H140.139V14.5455C140.139 13.8598 139.961 13.3258 139.605 12.9432C139.249 12.5568 138.76 12.3636 138.139 12.3636C137.711 12.3636 137.329 12.4564 136.991 12.642C136.658 12.8277 136.395 13.0985 136.202 13.4545C136.009 13.8106 135.912 14.2424 135.912 14.75ZM147.476 20.1818C146.658 20.1818 145.953 19.9886 145.362 19.6023C144.771 19.2159 144.317 18.6837 143.999 18.0057C143.68 17.3277 143.521 16.553 143.521 15.6818C143.521 14.7955 143.684 14.0133 144.01 13.3352C144.339 12.6534 144.798 12.1212 145.385 11.7386C145.976 11.3523 146.665 11.1591 147.453 11.1591C148.067 11.1591 148.62 11.2727 149.112 11.5C149.605 11.7273 150.008 12.0455 150.322 12.4545C150.637 12.8636 150.832 13.3409 150.908 13.8864H149.567C149.464 13.4886 149.237 13.1364 148.885 12.8295C148.536 12.5189 148.067 12.3636 147.476 12.3636C146.953 12.3636 146.495 12.5 146.101 12.7727C145.711 13.0417 145.406 13.4223 145.186 13.9148C144.97 14.4034 144.862 14.9773 144.862 15.6364C144.862 16.3106 144.968 16.8977 145.18 17.3977C145.396 17.8977 145.699 18.286 146.089 18.5625C146.483 18.839 146.946 18.9773 147.476 18.9773C147.824 18.9773 148.141 18.9167 148.425 18.7955C148.709 18.6742 148.949 18.5 149.146 18.2727C149.343 18.0455 149.483 17.7727 149.567 17.4545H150.908C150.832 17.9697 150.644 18.4337 150.345 18.8466C150.05 19.2557 149.658 19.5814 149.169 19.8239C148.684 20.0625 148.12 20.1818 147.476 20.1818ZM156.527 20.1818C155.686 20.1818 154.961 19.9962 154.351 19.625C153.745 19.25 153.277 18.7273 152.947 18.0568C152.622 17.3826 152.459 16.5985 152.459 15.7045C152.459 14.8106 152.622 14.0227 152.947 13.3409C153.277 12.6553 153.735 12.1212 154.322 11.7386C154.913 11.3523 155.603 11.1591 156.391 11.1591C156.845 11.1591 157.294 11.2348 157.737 11.3864C158.18 11.5379 158.584 11.7841 158.947 12.125C159.311 12.4621 159.601 12.9091 159.817 13.4659C160.033 14.0227 160.141 14.7083 160.141 15.5227V16.0909H153.413V14.9318H158.777C158.777 14.4394 158.679 14 158.482 13.6136C158.288 13.2273 158.012 12.9223 157.652 12.6989C157.296 12.4754 156.875 12.3636 156.391 12.3636C155.857 12.3636 155.394 12.4962 155.004 12.7614C154.618 13.0227 154.321 13.3636 154.112 13.7841C153.904 14.2045 153.8 14.6553 153.8 15.1364V15.9091C153.8 16.5682 153.913 17.1269 154.141 17.5852C154.372 18.0398 154.692 18.3864 155.101 18.625C155.51 18.8598 155.985 18.9773 156.527 18.9773C156.879 18.9773 157.197 18.928 157.482 18.8295C157.769 18.7273 158.018 18.5758 158.226 18.375C158.434 18.1705 158.595 17.9167 158.709 17.6136L160.004 17.9773C159.868 18.4167 159.639 18.803 159.317 19.1364C158.995 19.4659 158.597 19.7235 158.124 19.9091C157.65 20.0909 157.118 20.1818 156.527 20.1818ZM165.476 20.1818C164.749 20.1818 164.107 19.9981 163.55 19.6307C162.993 19.2595 162.557 18.7367 162.243 18.0625C161.929 17.3845 161.771 16.5833 161.771 15.6591C161.771 14.7424 161.929 13.947 162.243 13.2727C162.557 12.5985 162.995 12.0777 163.555 11.7102C164.116 11.3428 164.764 11.1591 165.499 11.1591C166.067 11.1591 166.516 11.2538 166.845 11.4432C167.179 11.6288 167.432 11.8409 167.607 12.0795C167.785 12.3144 167.923 12.5076 168.021 12.6591H168.135V8.36364H169.476V20H168.18V18.6591H168.021C167.923 18.8182 167.783 19.0189 167.601 19.2614C167.419 19.5 167.16 19.714 166.822 19.9034C166.485 20.089 166.036 20.1818 165.476 20.1818ZM165.658 18.9773C166.196 18.9773 166.65 18.8371 167.021 18.5568C167.393 18.2727 167.675 17.8807 167.868 17.3807C168.061 16.8769 168.158 16.2955 168.158 15.6364C168.158 14.9848 168.063 14.4148 167.874 13.9261C167.684 13.4337 167.404 13.0511 167.033 12.7784C166.661 12.5019 166.203 12.3636 165.658 12.3636C165.089 12.3636 164.616 12.5095 164.237 12.8011C163.862 13.089 163.58 13.4811 163.391 13.9773C163.205 14.4697 163.112 15.0227 163.112 15.6364C163.112 16.2576 163.207 16.822 163.396 17.3295C163.589 17.8333 163.874 18.2348 164.249 18.5341C164.627 18.8295 165.097 18.9773 165.658 18.9773Z" fill="#C4C1FF"/>
<defs>
<linearGradient id="paint0_linear_16_18316" x1="-1.83192e-06" y1="14.1282" x2="191" y2="14.1282" gradientUnits="userSpaceOnUse">
<stop stop-color="#8D33FF"/>
<stop offset="1" stop-color="#0469FF"/>
</linearGradient>
</defs>
</svg>
