<svg width="92" height="29" viewBox="0 0 92 29" fill="none" xmlns="http://www.w3.org/2000/svg">
<rect x="0.5" y="0.5" width="91" height="28" rx="14" stroke="url(#paint0_linear_16_18448)"/>
<path d="M21.4091 20V8.36364H25.3409C26.2538 8.36364 27 8.52841 27.5795 8.85795C28.1629 9.18371 28.5947 9.625 28.875 10.1818C29.1553 10.7386 29.2955 11.3598 29.2955 12.0455C29.2955 12.7311 29.1553 13.3542 28.875 13.9148C28.5985 14.4754 28.1705 14.9223 27.5909 15.2557C27.0114 15.5852 26.2689 15.75 25.3636 15.75H22.5455V14.5H25.3182C25.9432 14.5 26.4451 14.392 26.8239 14.1761C27.2027 13.9602 27.4773 13.6686 27.6477 13.3011C27.822 12.9299 27.9091 12.5114 27.9091 12.0455C27.9091 11.5795 27.822 11.1629 27.6477 10.7955C27.4773 10.428 27.2008 10.1402 26.8182 9.93182C26.4356 9.7197 25.928 9.61364 25.2955 9.61364H22.8182V20H21.4091ZM31.3835 20V11.2727H32.679V12.5909H32.7699C32.929 12.1591 33.2169 11.8087 33.6335 11.5398C34.0502 11.2708 34.5199 11.1364 35.0426 11.1364C35.1411 11.1364 35.2642 11.1383 35.4119 11.142C35.5597 11.1458 35.6714 11.1515 35.7472 11.1591V12.5227C35.7017 12.5114 35.5975 12.4943 35.4347 12.4716C35.2756 12.4451 35.107 12.4318 34.929 12.4318C34.5047 12.4318 34.1259 12.5208 33.7926 12.6989C33.4631 12.8731 33.2017 13.1155 33.0085 13.4261C32.8191 13.733 32.7244 14.0833 32.7244 14.4773V20H31.3835ZM37.3366 20V11.2727H38.6776V20H37.3366ZM38.0185 9.81818C37.7571 9.81818 37.5317 9.72917 37.3423 9.55114C37.1567 9.37311 37.0639 9.15909 37.0639 8.90909C37.0639 8.65909 37.1567 8.44508 37.3423 8.26705C37.5317 8.08902 37.7571 8 38.0185 8C38.2798 8 38.5033 8.08902 38.6889 8.26705C38.8783 8.44508 38.973 8.65909 38.973 8.90909C38.973 9.15909 38.8783 9.37311 38.6889 9.55114C38.5033 9.72917 38.2798 9.81818 38.0185 9.81818ZM44.679 20.1818C43.8608 20.1818 43.1563 19.9886 42.5653 19.6023C41.9744 19.2159 41.5199 18.6837 41.2017 18.0057C40.8835 17.3277 40.7244 16.553 40.7244 15.6818C40.7244 14.7955 40.8873 14.0133 41.2131 13.3352C41.5426 12.6534 42.0009 12.1212 42.5881 11.7386C43.179 11.3523 43.8684 11.1591 44.6562 11.1591C45.2699 11.1591 45.8229 11.2727 46.3153 11.5C46.8078 11.7273 47.2112 12.0455 47.5256 12.4545C47.84 12.8636 48.035 13.3409 48.1108 13.8864H46.7699C46.6676 13.4886 46.4403 13.1364 46.0881 12.8295C45.7396 12.5189 45.2699 12.3636 44.679 12.3636C44.1563 12.3636 43.6979 12.5 43.304 12.7727C42.9138 13.0417 42.6089 13.4223 42.3892 13.9148C42.1733 14.4034 42.0653 14.9773 42.0653 15.6364C42.0653 16.3106 42.1714 16.8977 42.3835 17.3977C42.5994 17.8977 42.9025 18.286 43.2926 18.5625C43.6866 18.839 44.1487 18.9773 44.679 18.9773C45.0275 18.9773 45.3438 18.9167 45.6278 18.7955C45.9119 18.6742 46.1525 18.5 46.3494 18.2727C46.5464 18.0455 46.6866 17.7727 46.7699 17.4545H48.1108C48.035 17.9697 47.8475 18.4337 47.5483 18.8466C47.2528 19.2557 46.8608 19.5814 46.3722 19.8239C45.8873 20.0625 45.3229 20.1818 44.679 20.1818ZM50.071 20V11.2727H51.4119V20H50.071ZM50.7528 9.81818C50.4915 9.81818 50.2661 9.72917 50.0767 9.55114C49.8911 9.37311 49.7983 9.15909 49.7983 8.90909C49.7983 8.65909 49.8911 8.44508 50.0767 8.26705C50.2661 8.08902 50.4915 8 50.7528 8C51.0142 8 51.2377 8.08902 51.4233 8.26705C51.6127 8.44508 51.7074 8.65909 51.7074 8.90909C51.7074 9.15909 51.6127 9.37311 51.4233 9.55114C51.2377 9.72917 51.0142 9.81818 50.7528 9.81818ZM55.2088 14.75V20H53.8679V11.2727H55.1634V12.6364H55.277C55.4815 12.1932 55.7921 11.8371 56.2088 11.5682C56.6255 11.2955 57.1634 11.1591 57.8224 11.1591C58.4134 11.1591 58.9304 11.2803 59.3736 11.5227C59.8168 11.7614 60.1615 12.125 60.4077 12.6136C60.6539 13.0985 60.777 13.7121 60.777 14.4545V20H59.4361V14.5455C59.4361 13.8598 59.258 13.3258 58.902 12.9432C58.5459 12.5568 58.0573 12.3636 57.4361 12.3636C57.008 12.3636 56.6255 12.4564 56.2884 12.642C55.955 12.8277 55.6918 13.0985 55.4986 13.4545C55.3054 13.8106 55.2088 14.2424 55.2088 14.75ZM66.75 23.4545C66.1023 23.4545 65.5455 23.3712 65.0795 23.2045C64.6136 23.0417 64.2254 22.8258 63.9148 22.5568C63.608 22.2917 63.3636 22.0076 63.1818 21.7045L64.25 20.9545C64.3712 21.1136 64.5246 21.2955 64.7102 21.5C64.8958 21.7083 65.1496 21.8883 65.4716 22.0398C65.7973 22.1951 66.2235 22.2727 66.75 22.2727C67.4545 22.2727 68.036 22.1023 68.4943 21.7614C68.9527 21.4205 69.1818 20.8864 69.1818 20.1591V18.3864H69.0682C68.9697 18.5455 68.8295 18.7424 68.6477 18.9773C68.4697 19.2083 68.2121 19.4148 67.875 19.5966C67.5417 19.7746 67.0909 19.8636 66.5227 19.8636C65.8182 19.8636 65.1856 19.697 64.625 19.3636C64.0682 19.0303 63.6269 18.5455 63.3011 17.9091C62.9792 17.2727 62.8182 16.5 62.8182 15.5909C62.8182 14.697 62.9754 13.9186 63.2898 13.2557C63.6042 12.589 64.0417 12.0739 64.6023 11.7102C65.1629 11.3428 65.8106 11.1591 66.5455 11.1591C67.1136 11.1591 67.5644 11.2538 67.8977 11.4432C68.2348 11.6288 68.4924 11.8409 68.6705 12.0795C68.8523 12.3144 68.9924 12.5076 69.0909 12.6591H69.2273V11.2727H70.5227V20.25C70.5227 21 70.3523 21.6098 70.0114 22.0795C69.6742 22.553 69.2197 22.8996 68.6477 23.1193C68.0795 23.3428 67.447 23.4545 66.75 23.4545ZM66.7045 18.6591C67.2424 18.6591 67.697 18.536 68.0682 18.2898C68.4394 18.0436 68.7216 17.6894 68.9148 17.2273C69.108 16.7652 69.2045 16.2121 69.2045 15.5682C69.2045 14.9394 69.1098 14.3845 68.9205 13.9034C68.7311 13.4223 68.4508 13.0455 68.0795 12.7727C67.7083 12.5 67.25 12.3636 66.7045 12.3636C66.1364 12.3636 65.6629 12.5076 65.2841 12.7955C64.9091 13.0833 64.6269 13.4697 64.4375 13.9545C64.2519 14.4394 64.1591 14.9773 64.1591 15.5682C64.1591 16.1742 64.2538 16.7102 64.4432 17.1761C64.6364 17.6383 64.9205 18.0019 65.2955 18.267C65.6742 18.5284 66.1439 18.6591 66.7045 18.6591Z" fill="#C4C1FF"/>
<defs>
<linearGradient id="paint0_linear_16_18448" x1="-8.82392e-07" y1="14.1282" x2="92" y2="14.1282" gradientUnits="userSpaceOnUse">
<stop stop-color="#8D33FF"/>
<stop offset="1" stop-color="#0469FF"/>
</linearGradient>
</defs>
</svg>
